<svg width="512" height="653" viewBox="0 0 512 653" fill="none" xmlns="http://www.w3.org/2000/svg">
<path d="M272.605 651.768C278.493 648.804 287.754 641.081 294.925 633.191C313.303 612.985 323.371 589.566 324.653 564.143C324.985 556.753 324.368 548.488 322.658 538.427C320.616 526.195 321.424 520.142 325.84 515.759C329.497 512.085 334.531 510.541 341.131 511.042C345.595 511.376 349.347 512.544 353.241 514.84C362.549 520.309 368.343 529.869 369.957 542.351C370.86 549.406 371.192 550.158 373.519 550.158C375.609 550.158 379.17 544.397 382.542 535.755C387.576 522.856 388.288 509.622 384.679 497.182C383.159 491.964 379.36 483.74 376.083 478.563C368.913 467.292 366.111 461.531 364.923 455.728C363.546 449.132 365.161 443.747 369.767 439.948C373.519 436.817 375.893 436.024 381.117 436.024C390.093 436.066 396.646 440.073 401.727 448.715C405.669 455.352 407.331 463.242 406.856 473.387C406.666 478.396 406.714 479.69 407.284 480.4C408.946 482.487 411.225 480.692 414.407 474.848C420.961 462.741 424.332 448.84 424.902 431.599C425.804 403.796 415.547 375.075 396.979 353.241C392.61 348.107 382.637 339.09 376.226 334.456C353.906 318.258 326.885 309.659 291.838 307.613C276.072 306.695 253.467 307.363 241.974 309.116C202.748 315.044 171.216 334.873 153.455 364.889C146.854 375.993 142.485 387.64 139.825 401.082C138.163 409.39 137.736 423.25 138.876 431.808C141.108 448.297 148.374 466.123 158.299 479.231C162.573 484.867 164.14 486.286 165.992 486.286C166.894 486.286 167.749 486.077 167.939 485.827C168.081 485.576 167.986 483.239 167.654 480.65C166.372 470.798 169.506 458.776 175.3 451.345C177.532 448.464 181.663 444.749 184.228 443.329C190.259 439.948 199.187 439.781 206.358 442.912C212.151 445.417 216.378 449.758 217.802 454.643C219.37 459.986 218.325 464.829 210.204 489C202.938 510.624 201.561 517.22 202.036 528.241C202.321 535.129 203.271 540.598 205.123 545.566C206.833 550.032 212.104 558.883 215.476 562.89C219.512 567.649 227.728 574.83 234.424 579.338C255.034 593.323 262.442 599.501 268.426 607.558C273.555 614.488 275.929 621.209 275.929 629.058C275.929 636.238 274.124 641.039 269.281 646.758C266.669 649.889 266.336 651.225 267.951 652.185C269.376 653.103 270.135 653.02 272.605 651.768Z" fill="#FFAB25"/>
<path d="M278.465 516.555C281.357 514.93 285.905 510.697 289.426 506.372C298.451 495.297 303.395 482.459 304.025 468.524C304.188 464.473 303.885 459.942 303.045 454.428C302.042 447.723 302.439 444.405 304.608 442.002C306.403 439.988 308.875 439.142 312.117 439.416C314.309 439.599 316.151 440.24 318.064 441.499C322.634 444.496 325.48 449.737 326.272 456.579C326.716 460.446 326.879 460.858 328.022 460.858C329.048 460.858 330.797 457.7 332.452 452.963C334.924 445.892 335.274 438.638 333.502 431.819C332.756 428.959 330.89 424.451 329.281 421.613C325.759 415.435 324.384 412.277 323.8 409.096C323.124 405.481 323.917 402.529 326.179 400.447C328.022 398.73 329.188 398.296 331.753 398.296C336.16 398.318 339.379 400.515 341.874 405.252C343.809 408.89 344.626 413.215 344.392 418.776C344.299 421.522 344.323 422.231 344.602 422.62C345.419 423.764 346.538 422.78 348.1 419.577C351.319 412.941 352.974 405.321 353.254 395.87C353.697 380.63 348.66 364.886 339.542 352.919C337.396 350.104 332.499 345.161 329.351 342.621C318.39 333.743 305.121 329.029 287.91 327.907C280.168 327.404 269.067 327.77 263.424 328.731C244.161 331.981 228.676 342.85 219.954 359.303C216.713 365.39 214.567 371.774 213.261 379.142C212.445 383.696 212.235 391.293 212.795 395.984C213.891 405.023 217.459 414.794 222.333 421.98C224.432 425.069 225.201 425.847 226.111 425.847C226.554 425.847 226.974 425.732 227.067 425.595C227.137 425.458 227.09 424.176 226.927 422.758C226.297 417.357 227.837 410.767 230.682 406.694C231.778 405.115 233.807 403.078 235.066 402.3C238.028 400.447 242.412 400.355 245.933 402.071C248.778 403.444 250.854 405.824 251.554 408.501C252.323 411.43 251.81 414.085 247.822 427.334C244.254 439.188 243.578 442.803 243.811 448.844C243.951 452.62 244.417 455.618 245.327 458.341C246.167 460.789 248.755 465.64 250.411 467.837C252.393 470.446 256.428 474.382 259.716 476.853C269.837 484.519 273.475 487.906 276.413 492.322C278.932 496.121 280.098 499.805 280.098 504.107C280.098 508.043 279.212 510.674 276.833 513.809C275.55 515.525 275.387 516.258 276.18 516.784C276.88 517.287 277.253 517.242 278.465 516.555Z" fill="#F5640C"/>
<path d="M420.602 126.395L503.793 86.4062L463.804 194.947H420.602V126.395Z" fill="#F2EDE9"/>
<rect x="134.961" y="51.416" width="252.073" height="219.225" fill="#F2EDE9"/>
<path d="M10.7109 87.1211L113.896 126.396L134.962 202.803L42.1307 185.665L10.7109 87.1211Z" fill="#F2EDE9"/>
<path d="M310.286 1.23175C299.329 4.17135 289.575 8.9148 279.821 16.2638C277.082 18.3349 274.543 20.0051 274.142 20.0051C273.742 20.0051 272.272 19.003 270.802 17.8004C259.845 8.51394 250.158 5.10668 234.792 5.03987C220.829 4.97306 210.073 7.5118 197.379 13.725C185.554 19.5374 180.677 24.949 177.069 36.2397L175.131 42.3861L171.524 42.2525C169.586 42.1189 160.901 42.0521 152.283 41.9853C134.044 41.8517 129.835 42.453 120.949 46.7287C111.195 51.4054 103.312 61.0259 100.105 72.1162C99.6371 73.7864 99.2362 78.6635 99.2362 83.1397C99.1694 92.3593 100.572 98.3722 104.581 106.256C105.85 108.861 106.786 111.133 106.585 111.333C106.385 111.534 104.648 110.665 102.71 109.396C96.8979 105.521 94.0919 104.318 77.5901 98.7062C44.2524 87.4155 30.5565 80.6677 18.7981 69.9115C14.1883 65.6357 12.9857 65.0344 9.37804 65.3685C5.23588 65.7693 1.96223 70.6464 0.559243 78.463C-0.576511 85.2108 0.0915793 101.312 1.89542 107.124C3.76608 113.404 6.9061 119.885 10.0461 124.027C12.5849 127.434 12.6517 127.568 12.6517 133.38C12.7185 145.339 16.727 156.028 23.9424 163.511L27.8173 167.453L28.1514 173.332C28.4854 178.409 28.8863 179.879 31.2246 184.623C36.5693 195.312 48.1941 203.864 62.4913 207.538C64.8296 208.139 71.4437 214.954 71.4437 216.758C71.4437 217.359 70.3747 219.096 69.0385 220.633C65.6981 224.575 62.3576 231.589 61.0883 237.469C60.1529 241.477 60.0193 244.951 60.2197 254.037C60.487 264.727 60.6206 265.929 62.4913 271.274C65.2304 278.957 68.9717 285.571 72.7798 289.313C74.5169 290.983 76.5212 293.187 77.1892 294.256C79.3939 297.597 92.5553 307.551 100.973 312.161C103.445 313.564 105.583 315.168 105.784 315.836C105.984 316.437 106.118 322.049 106.051 328.329C105.917 350.309 108.79 359.462 120.014 372.423C124.69 377.768 127.029 379.572 135.981 384.716C143.13 388.858 149.41 391.13 157.961 392.666C172.927 395.472 185.554 395.873 192.301 393.802L196.577 392.533L199.183 395.472C203.726 400.683 203.592 400.149 204.728 424C205.797 446.047 207.133 466.624 208.402 478.249C210.206 494.55 218.424 509.248 228.579 514.392C240.671 520.405 249.824 512.321 249.824 495.485C249.824 493.147 249.356 487.535 248.755 482.992C247.285 471.234 248.087 426.672 249.891 421.06C250.358 419.523 252.229 417.586 256.104 414.58C264.121 408.299 269.933 401.017 276.147 389.66C279.821 382.845 280.756 382.311 283.429 385.785C287.304 390.729 297.592 400.55 300.866 402.487C306.077 405.493 312.491 407.565 318.971 408.233C325.786 408.901 326.654 409.569 326.654 413.778C326.721 423.599 328.124 440.835 329.327 446.581C331.598 457.271 332.6 463.217 334.003 474.641C336.141 491.41 338.413 498.224 343.958 504.505C347.098 508.045 353.779 511.72 357.119 511.72C361.195 511.72 366.406 509.248 369.613 505.774C377.496 497.356 380.168 485.397 377.763 468.962C375.893 455.934 374.824 438.898 374.356 413.778L373.888 389.66L384.845 388.925C406.892 387.455 418.918 382.378 431.211 369.283C436.622 363.604 439.695 357.525 441.299 349.374C443.303 339.152 441.499 323.652 437.09 313.831L435.353 309.957L442.1 303.61C452.456 293.789 457.6 285.104 459.07 274.615C460.473 264.727 457.734 256.576 450.652 249.427C448.38 247.156 446.109 245.152 445.574 244.951C444.84 244.684 445.441 243.882 447.712 241.811C456.865 233.861 459.738 223.305 455.93 211.948C454.995 209.142 454.326 206.803 454.393 206.736C454.527 206.67 456.531 205.601 458.936 204.398C473.434 197.183 482.854 184.689 483.322 171.996C483.522 167.386 483.522 167.319 486.929 163.778C491.405 159.168 494.412 154.492 496.683 148.279C498.287 144.003 498.621 142.065 498.821 135.384C499.022 127.434 499.022 127.434 501.427 124.16C504.834 119.551 508.041 112.669 509.644 106.79C514.455 89.2861 511.582 68.8425 503.899 65.7025C500.425 64.2327 498.086 65.0344 493.143 69.5774C483.255 78.5299 471.029 85.144 446.643 94.8313C441.031 97.036 434.417 100.243 431.812 101.913C429.273 103.583 427.002 105.12 426.734 105.253C426.467 105.454 427.135 103.583 428.271 101.111C431.879 92.9606 433.081 86.8142 432.68 78.463C432.279 70.2455 430.876 64.5 427.002 55.6143C421.122 41.9185 411.034 31.229 398.274 25.1494C390.524 21.4081 385.379 20.4728 362.197 18.7357L355.382 18.2013L350.104 12.8565C344.025 6.64329 337.611 2.56793 331.598 1.03132C325.986 -0.438476 316.232 -0.304858 310.286 1.23175ZM366.138 52.0067C368.477 54.4118 368.61 56.6165 366.673 61.694C363.733 69.6442 358.188 76.1915 344.626 87.8163C332.467 98.2385 328.592 102.381 325.986 107.525C324.182 111.133 324.116 111.667 323.648 125.229C323.18 140.261 321.911 155.093 320.241 164.313C317.368 180.547 307.012 217.56 302.937 226.111C297.325 237.936 285.634 249.16 276.28 251.766C265.791 254.639 240.27 236.4 225.171 215.221C212.344 197.183 206.131 184.088 203.258 168.789C201.721 160.571 201.721 129.171 203.325 112.268C204.26 102.113 204.26 100.443 203.458 99.1071C201.855 96.7019 199.583 96.6351 194.239 98.773C188.026 101.245 185.019 101.846 172.125 103.249C160.166 104.519 153.084 103.984 147.74 101.445C142.261 98.773 140.391 92.493 144.199 89.2861C148.942 85.2776 165.644 83.8746 187.09 85.5448C192.435 86.0125 197.512 86.1461 198.448 85.9457C199.316 85.7452 202.924 83.0729 206.398 80.0665C214.883 72.8511 219.159 69.9783 228.044 65.7025C233.656 63.0302 236.997 61.8944 241.807 61.0259C250.292 59.4893 263.987 59.4893 270.134 61.0259C279.554 63.2974 289.375 69.7111 300.532 80.935C304.474 84.8099 308.415 88.2172 309.418 88.4844C312.09 89.1525 315.096 87.215 317.769 82.9393C324.65 72.1162 333.335 62.1616 340.35 57.151C347.966 51.6726 352.042 50.2028 359.257 50.136C363.8 50.0692 364.335 50.2028 366.138 52.0067ZM35.0327 99.9088C41.9809 103.316 50.7997 106.79 63.6938 111.199C80.5297 116.945 90.8851 121.154 90.8183 122.156C90.7515 122.357 87.7451 124.495 84.0706 126.9C64.4955 139.527 56.6789 154.492 57.6142 177.675C57.7478 182.284 58.1487 186.56 58.4159 187.161C59.2176 189.166 57.347 188.564 52.6035 185.291C48.6618 182.618 44.052 177.34 44.052 175.537C44.052 175.269 45.2545 175.002 46.7911 175.002C52.1358 175.002 55.4763 168.923 52.9376 163.778C51.9354 161.707 50.666 160.772 45.4549 158.166C38.1059 154.492 33.4293 150.283 30.9574 145.139C28.8195 140.595 28.0846 137.188 29.4208 137.79C37.9723 141.464 39.3085 141.932 42.8494 141.932C46.1898 141.932 46.9247 141.664 48.5282 140.061C50.0648 138.524 50.3988 137.656 50.3988 134.917C50.3988 130.841 48.2609 128.303 42.7826 126.165C35.4336 123.225 30.1557 120.286 26.548 116.945C20.4015 111.333 16.0589 101.178 15.9921 92.3593V88.8853L20.5352 91.9585C23.0071 93.6287 29.5544 97.1696 35.0327 99.9088ZM495.08 98.6394C494.011 104.318 490.136 111.667 485.994 115.809C482.186 119.617 477.643 122.423 471.296 124.895C461.742 128.637 458.803 133.113 462.277 138.792C464.815 143.001 470.294 143.268 477.977 139.727L482.52 137.589L482.119 139.927C481.518 143.669 478.912 148.345 475.639 151.686C472.766 154.559 468.089 157.164 460.607 160.037C454.928 162.242 452.723 167.453 455.596 172.129C457.4 175.069 459.204 175.871 463.078 175.47C464.815 175.269 466.285 175.269 466.285 175.603C466.285 177.073 462.01 182.418 459.204 184.489C454.393 187.963 446.042 192.038 445.708 191.036C445.508 190.569 444.105 188.631 442.501 186.627C440.898 184.623 439.562 182.886 439.562 182.618C439.562 182.418 441.232 180.347 443.303 178.142C450.184 170.459 453.525 161.373 453.525 149.949C453.592 139.193 451.12 131.042 444.906 121.622L441.031 115.676L446.777 113.003C449.984 111.534 455.462 109.195 458.936 107.792C471.363 102.982 483.923 96.7019 492.007 91.3572L495.347 89.1525L495.548 91.9585C495.681 93.4951 495.414 96.5683 495.08 98.6394Z" fill="black"/>
<path d="M236.393 111.066C235.124 111.868 233.387 114.005 232.451 115.876C231.115 118.615 230.848 120.152 230.781 125.229C230.781 132.244 232.051 136.32 235.191 139.326C239.066 143.067 244.744 141.598 247.617 136.052C251.358 128.837 249.02 114.139 243.542 110.799C240.803 109.128 239.132 109.195 236.393 111.066Z" fill="black"/>
<path d="M278.082 110.866C276.88 111.534 275.276 113.471 274.408 115.008C273.072 117.48 272.871 118.883 272.871 124.896C272.871 130.908 273.072 132.378 274.475 135.117C276.212 138.658 278.617 140.262 282.091 140.262C288.237 140.262 292.313 131.376 290.575 121.756C288.838 111.667 283.828 107.325 278.082 110.866Z" fill="black"/>
</svg>
